<?xml version="1.0" standalone="no"?>
<!DOCTYPE svg PUBLIC "-//W3C//DTD SVG 20010904//EN"
 "http://www.w3.org/TR/2001/REC-SVG-20010904/DTD/svg10.dtd">
<svg version="1.0" xmlns="http://www.w3.org/2000/svg"
 width="1792.000000pt" height="1792.000000pt" viewBox="0 0 1792.000000 1792.000000"
 preserveAspectRatio="xMidYMid meet">

<g transform="translate(0.000000,1792.000000) scale(0.100000,-0.100000)"
fill="#000000" stroke="none">
<path d="M0 8960 l0 -8960 8960 0 8960 0 0 8960 0 8960 -8960 0 -8960 0 0
-8960z m4830 7821 c0 -5 -10 -22 -23 -38 -45 -55 -265 -359 -287 -395 l-22
-38 -1489 0 -1489 0 -2 -1292 -3 -1292 -220 -198 c-121 -109 -228 -203 -237
-208 -17 -10 -18 75 -18 1730 l0 1740 1895 0 c1152 0 1895 -4 1895 -9z m3880
-993 c0 -552 3 -1108 7 -1235 l6 -233 -2167 -2 -2167 -3 -2 -2550 -2 -2550
-1672 -3 -1673 -2 0 1823 0 1824 172 154 c95 85 329 295 521 467 l350 312 203
0 204 0 0 -1515 c0 -941 4 -1515 9 -1515 6 0 65 48 133 108 234 202 594 517
936 816 l342 300 0 1408 0 1408 1218 0 1218 0 177 249 c97 137 177 254 177
260 0 7 -620 10 -2096 7 -1152 -2 -2097 -6 -2100 -8 -2 -3 -5 -119 -7 -259
l-2 -254 483 3 482 3 0 -1412 0 -1411 -42 -38 c-24 -20 -128 -111 -233 -200
l-190 -164 -5 1367 -5 1367 -110 4 c-60 2 -278 4 -482 5 l-373 1 0 740 0 740
1253 0 1252 0 350 467 c193 256 361 479 373 495 l24 28 1719 0 1719 0 0 -1002z
m3922 990 c18 -15 598 -782 628 -830 19 -31 20 -50 20 -330 l0 -298 -997 -1
c-549 -1 -1011 -3 -1028 -4 -16 -1 -155 -3 -307 -4 l-278 -1 0 -495 0 -495
-730 0 -730 0 0 1235 0 1235 1703 0 c1348 0 1706 -3 1719 -12z m4248 -1728 c0
-957 -3 -1740 -6 -1740 -3 0 -111 95 -240 212 l-234 211 0 1289 0 1288 -1492
0 -1493 0 -170 228 c-93 125 -171 233 -173 240 -3 9 383 12 1902 12 l1906 0 0
-1740z m-980 505 l0 -245 -955 0 -955 0 0 -1583 c0 -1252 3 -1586 13 -1599 6
-8 221 -217 477 -463 256 -247 572 -552 703 -678 l237 -229 0 1500 c0 825 3
1507 6 1516 5 14 30 16 169 16 261 0 219 19 482 -218 499 -449 766 -688 784
-701 19 -13 19 -59 19 -1837 l0 -1824 -1682 2 -1683 3 -2 260 c-2 143 -3 1292
-3 2553 l0 2292 -1190 0 -1190 0 0 240 0 240 1190 0 1190 0 0 493 c0 272 3
497 7 500 3 4 541 7 1195 7 l1188 0 0 -245z m-137 -763 l137 -2 -2 -237 -3
-238 -482 -3 -483 -2 -2 -1366 -3 -1366 -220 207 c-121 114 -226 214 -232 223
-10 12 -13 308 -13 1399 l0 1382 148 3 c145 3 887 3 1155 0z m-5094 -2829 c0
-313 -4 -577 -8 -587 -7 -19 -125 -57 -686 -220 l-220 -64 0 -2128 0 -2128
225 -68 c124 -38 329 -99 455 -136 l230 -68 0 -585 0 -584 -1703 0 -1703 0 0
584 1 585 82 23 c64 18 680 203 806 241 l22 7 0 2124 c0 1169 -3 2127 -6 2130
-3 3 -207 65 -452 136 l-447 131 -3 587 -2 587 1705 0 1705 0 -1 -567z m-6279
-5308 l0 -2045 1205 0 1205 0 69 -82 c122 -146 543 -659 651 -795 l105 -132
542 0 542 -1 3 -1237 c2 -681 2 -1241 0 -1246 -2 -4 -724 -7 -1605 -6 l-1602
0 -70 88 c-38 49 -176 218 -305 376 -129 158 -290 355 -357 439 l-123 151 0
217 0 218 981 2 980 3 -206 253 -206 252 -895 0 -894 0 0 -1000 0 -1000 -1685
0 -1685 0 1 2008 0 2007 237 -241 237 -242 1 -1515 c1 -834 5 -1521 9 -1526 4
-8 369 -11 1205 -11 l1199 0 6 21 c4 12 6 463 4 1003 l-4 981 1235 2 c679 2
1240 -1 1245 -5 6 -4 37 -41 70 -82 77 -97 586 -722 896 -1100 l242 -295
-1144 -2 c-629 -2 -1150 -5 -1157 -8 -8 -3 5 -26 40 -67 29 -35 122 -150 207
-256 l153 -192 1257 2 1256 3 3 757 2 758 -408 0 -408 0 -30 33 c-17 17 -110
129 -207 247 -96 118 -269 330 -384 470 l-209 255 -1342 3 -1342 2 0 813 0
812 -700 690 c-385 379 -704 691 -710 693 -7 3 -9 -726 -8 -2260 l3 -2263 608
-3 607 -2 0 -245 0 -245 -845 0 -845 0 0 1346 0 1346 -388 391 c-213 216 -433
440 -490 498 l-102 105 0 1452 0 1452 1675 0 1675 0 0 -2045z m12490 696 l0
-1349 -287 -323 c-159 -177 -379 -426 -490 -553 l-203 -231 0 -1392 0 -1393
-845 0 -845 0 0 245 0 245 608 2 607 3 3 2293 c1 1725 -1 2293 -9 2290 -7 -2
-330 -242 -720 -533 l-708 -530 0 -1002 -1 -1003 -1329 0 -1329 0 -114 -137
c-63 -76 -160 -194 -215 -263 -202 -250 -446 -546 -476 -577 l-31 -33 -408 0
-408 0 2 -757 3 -758 1257 -3 1256 -2 119 147 c65 81 157 194 205 252 49 58
88 109 88 113 0 4 -520 9 -1156 10 l-1157 3 329 399 c181 220 453 553 605 740
l275 341 1237 3 1237 2 0 -982 c0 -541 3 -993 6 -1005 l6 -23 1199 0 c718 0
1200 4 1204 9 3 5 5 718 5 1585 l0 1575 48 54 c106 120 400 443 415 456 16 13
17 -130 17 -2073 l0 -2086 -1687 0 -1688 0 0 997 0 998 -891 3 -891 2 -169
-207 c-93 -114 -186 -229 -207 -255 l-37 -48 980 0 980 0 0 -213 0 -213 -47
-64 c-43 -60 -296 -372 -618 -764 -71 -87 -143 -176 -160 -197 l-30 -38 -1602
-1 -1603 0 0 1245 0 1245 545 0 c457 0 545 2 552 14 8 14 159 200 504 621 91
111 196 241 234 289 l68 86 1199 0 1198 0 1 703 c0 386 3 764 5 841 2 76 4
155 4 176 0 37 2 39 188 176 238 176 1069 800 1356 1018 120 92 226 171 236
176 11 6 139 10 309 10 l291 0 0 -1047 1 -1048 37 41 c164 179 450 502 458
516 5 10 8 418 6 1027 l-2 1011 -1205 0 -1205 0 0 -455 0 -455 -77 -57 c-43
-31 -148 -109 -233 -172 -85 -64 -157 -117 -160 -118 -3 -2 -6 391 -8 872 l-3
875 1686 0 1685 0 0 -1349z m-1950 -2531 l0 -1710 -360 0 -360 0 0 245 0 245
125 0 125 0 0 1288 0 1288 113 86 c130 100 351 267 355 267 1 1 2 -768 2
-1709z m-11470 -92 l0 -1127 123 -3 122 -3 3 -242 2 -243 -365 0 -365 0 0
1612 0 1613 240 -240 240 -240 0 -1127z"/>
<path d="M5474 16273 c-18 -21 -107 -135 -197 -253 l-164 -215 1306 -5 c718
-3 1305 -9 1304 -13 0 -5 -115 -144 -253 -310 -139 -166 -311 -381 -383 -477
-72 -96 -135 -181 -140 -187 -8 -10 122 -13 642 -13 l651 0 -2 753 -3 752
-1364 3 -1364 2 -33 -37z"/>
<path d="M1768 12868 l-248 -220 0 -1474 0 -1474 1195 0 1195 0 0 820 c0 451
-3 820 -6 820 -8 0 -133 -108 -539 -465 -181 -160 -423 -373 -537 -473 l-208
-182 -300 0 -300 0 -2 1434 -3 1434 -247 -220z"/>
<path d="M9687 16303 c-4 -3 -7 -343 -7 -755 l0 -748 255 0 255 0 0 500 0 500
1295 2 1296 3 -188 250 -188 250 -1356 3 c-745 1 -1359 -1 -1362 -5z"/>
<path d="M15898 11653 l-3 -1438 -293 -3 -293 -2 -267 257 c-850 820 -1041
1003 -1046 1003 -3 0 -6 -398 -6 -885 l0 -885 1205 0 1205 0 0 1474 0 1473
-212 189 c-116 104 -229 204 -250 222 l-38 34 -2 -1439z"/>
<path d="M1510 7107 l0 -1103 248 -256 c136 -141 249 -256 252 -257 6 -1 6
-69 8 1177 l2 1022 293 0 293 0 646 -635 c356 -349 649 -635 652 -635 4 0 6
403 6 895 l0 895 -1200 0 -1200 0 0 -1103z"/>
</g>
</svg>
